<?xml version="1.0" standalone="no"?>
<!DOCTYPE svg PUBLIC "-//W3C//DTD SVG 20010904//EN"
 "http://www.w3.org/TR/2001/REC-SVG-20010904/DTD/svg10.dtd">
<svg version="1.0" xmlns="http://www.w3.org/2000/svg"
 width="1742.000000pt" height="980.000000pt" viewBox="0 0 1742.000000 980.000000"
 preserveAspectRatio="xMidYMid meet">

<g transform="translate(0.000000,980.000000) scale(0.100000,-0.100000)"
fill="#000000" stroke="none">
<path d="M0 8785 l0 -1015 1600 0 1600 0 0 25 c0 24 2 25 73 25 72 0 73 0 84
30 10 25 17 30 46 30 20 0 37 6 40 13 2 6 8 9 12 4 5 -4 3 -13 -3 -19 -13 -13
-16 -48 -4 -48 4 1 18 7 32 15 14 8 32 14 40 14 8 0 -6 -11 -32 -24 -26 -14
-49 -29 -53 -35 -8 -12 8 -13 20 -1 33 31 409 201 444 201 6 0 19 4 29 10 31
17 185 59 312 84 196 39 362 56 551 58 105 1 156 4 129 8 -34 5 -21 7 50 7 70
0 82 -2 45 -6 l-50 -6 54 -7 c38 -5 59 -4 70 5 10 8 13 8 8 0 -8 -13 85 -29
103 -18 5 3 10 1 10 -4 0 -12 56 -15 63 -3 2 4 3 2 1 -4 -1 -6 30 -16 71 -23
40 -6 113 -23 162 -36 79 -21 90 -22 105 -8 18 16 48 12 48 -6 0 -6 13 -8 31
-4 33 6 136 -15 146 -30 7 -12 -16 -27 -42 -26 -17 0 -16 2 5 11 l25 10 -30 9
c-23 7 -33 5 -42 -8 -12 -15 -1 -21 95 -60 137 -56 145 -58 99 -33 -21 11 -35
25 -31 31 6 11 63 3 78 -12 5 -5 -6 -4 -25 1 -18 6 -38 10 -44 9 -18 -1 70
-38 92 -39 27 0 38 -16 17 -24 -11 -4 8 -19 62 -48 108 -57 111 -58 177 -101
45 -29 62 -35 75 -28 15 9 14 10 -6 11 -24 0 -106 49 -97 58 3 3 11 0 17 -6 7
-7 19 -12 28 -12 12 1 11 4 -5 17 -19 15 -19 15 10 9 24 -5 27 -4 12 4 -9 6
-27 8 -38 5 -14 -5 -25 -2 -30 6 -8 12 -10 12 -18 0 -7 -11 -23 -6 -85 30
l-76 45 38 1 c20 1 44 -3 52 -8 10 -7 4 -8 -20 -4 l-35 6 28 -16 c26 -15 31
-15 53 -1 20 14 27 14 44 4 11 -7 20 -18 20 -25 0 -9 22 -13 80 -13 79 0 80 0
80 -25 l0 -25 4640 0 4640 0 0 65 c0 37 4 65 10 65 6 0 10 -37 10 -90 0 -88 0
-90 24 -90 21 0 24 -5 28 -45 l3 -45 -40 0 c-22 0 -2093 -1 -4602 -2 -2718 -2
-4559 1 -4556 6 7 11 -16 -2 -40 -22 -9 -8 -20 -12 -24 -8 -4 4 -1 11 7 16 8
6 10 10 4 10 -5 0 -16 -6 -23 -12 -10 -11 -12 -10 -11 2 5 31 0 60 -10 60 -5
0 -10 -9 -10 -20 0 -11 5 -20 12 -20 6 0 9 -2 6 -5 -11 -11 -38 8 -38 26 0 10
-4 19 -10 19 -26 0 -6 -39 35 -68 53 -37 49 -36 70 -16 9 9 19 14 22 10 3 -3
-3 -14 -14 -24 l-21 -18 28 -16 c28 -16 34 -8 16 20 -4 7 -6 15 -3 18 2 3
2056 4 4563 4 2508 0 4574 0 4592 0 17 0 32 -4 32 -10 0 -7 -1511 -11 -4507
-12 l-4508 -3 4396 -2 4396 -3 11 -37 c6 -20 10 -38 8 -40 -1 -2 -1995 -3
-4430 -3 -4419 0 -4427 0 -4421 -20 3 -11 4 -20 1 -20 -13 0 -55 44 -50 51 3
5 -2 6 -10 3 -11 -4 -6 -13 22 -37 20 -18 40 -36 43 -41 8 -10 29 1 29 14 0 5
-8 7 -17 4 -15 -5 -16 -4 -3 5 13 10 13 12 0 21 -9 6 -10 10 -3 10 6 0 15 -4
18 -10 3 -5 42 -10 86 -10 46 0 79 -4 79 -10 0 -16 8627 -14 8633 3 3 6 6 0 6
-15 1 -16 6 -28 12 -28 7 0 10 -22 8 -62 -5 -112 1 -582 7 -575 4 4 6 166 5
361 -1 232 2 357 9 361 7 4 10 -112 10 -357 l0 -363 -50 -28 c-34 -19 -58 -26
-73 -22 -15 4 -18 3 -9 -3 9 -6 -33 -32 -143 -85 -87 -43 -161 -77 -166 -77
-5 0 -9 -447 -9 -1075 l0 -1075 -60 0 c-55 0 -60 2 -61 23 -1 12 -2 207 -3
432 l-1 410 -333 3 -333 2 1 271 c1 149 -1 273 -4 276 -4 4 -341 7 -400 4 -5
-1 -7 -118 -5 -273 l4 -273 -67 -3 -68 -3 0 -69 0 -70 -85 0 -85 0 0 175 0
175 -90 0 -90 0 -2 338 -3 337 -140 0 -140 0 -3 -202 -2 -203 -125 0 -125 0
-2 443 -3 442 -530 0 -530 0 -3 -897 -2 -898 -130 0 -131 0 3 210 c2 134 -1
211 -7 212 -5 2 -336 3 -735 3 l-725 0 -3 -392 -2 -393 -226 0 -226 0 4 1353
3 1352 -36 3 c-24 2 -42 -3 -54 -14 -14 -15 -18 -15 -27 -3 -8 11 -9 10 -4 -4
4 -14 1 -16 -18 -11 -13 3 -27 1 -31 -6 -4 -6 -16 -8 -28 -5 -18 5 -19 4 -7
-4 13 -10 13 -12 0 -21 -8 -5 -11 -10 -7 -10 4 0 21 10 37 22 16 12 33 18 37
13 5 -4 3 -10 -4 -12 -6 -2 -29 -17 -50 -34 -21 -16 -56 -41 -78 -56 -22 -15
-42 -30 -45 -33 -25 -28 -71 -48 -101 -45 -27 3 -30 2 -16 -6 9 -6 22 -7 27
-4 6 3 10 4 10 1 0 -5 -133 -105 -360 -271 -52 -39 -99 -73 -105 -78 -58 -44
-150 -107 -156 -107 -5 0 -9 -450 -9 -1010 l0 -1010 -70 0 -70 0 0 135 0 135
-125 0 -124 0 -3 83 -3 82 -67 3 -67 3 -3 -83 c-3 -81 -4 -83 -28 -83 -24 0
-25 2 -28 83 l-3 82 -64 0 c-45 0 -65 -4 -66 -12 0 -7 -1 -44 -2 -83 -2 -68
-3 -70 -29 -73 l-28 -3 0 85 0 86 -70 0 -69 0 -3 -82 c-3 -81 -4 -83 -28 -83
-24 0 -25 2 -28 83 l-3 82 -64 0 -65 0 0 -85 0 -86 -62 3 -63 3 -3 178 -2 177
-345 0 c-190 0 -348 0 -352 0 -5 0 -9 -81 -11 -180 l-2 -180 -58 0 -58 0 0 40
c0 36 2 39 30 42 l31 3 0 70 0 70 -132 3 -133 3 0 64 c0 54 -4 68 -27 97 -28
34 -164 189 -173 198 -3 3 -45 49 -93 103 l-87 99 0 134 0 134 -55 0 -54 0 1
98 1 97 -169 0 -169 0 -3 -97 -3 -98 -182 -2 -182 -3 -3 -132 -3 -133 -219 0
-220 0 0 -710 0 -710 -65 0 -65 0 -2 398 -3 397 -162 3 -162 2 -3 123 -3 122
-455 0 -455 0 -3 -122 -3 -123 -164 0 -165 0 0 -310 0 -310 -40 0 -40 0 0 195
0 195 -55 0 -55 0 -2 191 -3 191 -123 1 -123 2 -2 -190 -2 -190 -245 -2 c-135
-1 -249 -3 -255 -3 -6 0 -10 -28 -10 -62 l0 -63 -42 -3 -43 -3 -1 -102 c-1
-56 0 -114 1 -129 1 -28 1 -28 -59 -28 l-61 0 0 210 0 210 -80 0 -80 0 0 140
0 140 -250 0 c-193 0 -250 -3 -251 -12 -1 -7 0 -61 1 -120 3 -158 12 -148
-136 -148 l-124 0 0 -350 c0 -345 0 -350 -20 -350 -11 0 -23 -7 -26 -15 -4
-10 -20 -15 -44 -15 l-38 0 -7 120 c-4 66 -12 123 -17 127 -9 5 -452 72 -485
73 -10 0 -13 70 -13 315 l0 315 -140 0 -140 0 0 -2470 0 -2470 8710 0 8710 0
-2 2962 -3 2963 -143 0 -142 0 -2 -597 -1 -598 -198 0 -199 0 1 903 0 902 -46
26 c-25 14 -42 29 -38 34 5 4 2 5 -4 1 -7 -4 -25 0 -40 8 -16 8 -95 46 -176
85 l-148 71 1 372 1 373 -125 3 -126 3 3 467 c1 290 4 404 7 302 3 -91 7 -145
9 -120 3 39 5 33 16 -45 7 -49 14 -91 14 -92 1 -2 15 -3 31 -3 17 0 30 -4 30
-10 0 -5 -13 -10 -28 -10 -20 0 -32 7 -40 23 l-11 22 -1 -25 -2 -25 -8 25 c-5
15 -8 -35 -7 -120 1 -127 1 -135 7 -60 l6 85 2 -89 c2 -67 5 -87 13 -79 7 7
10 36 7 77 l-4 66 33 0 33 0 0 -65 0 -65 640 0 640 0 0 1015 0 1015 -8710 0
-8710 0 0 -1015z m16037 -257 c-3 -8 -6 -5 -6 6 -1 11 2 17 5 13 3 -3 4 -12 1
-19z m30 0 c-3 -8 -6 -5 -6 6 -1 11 2 17 5 13 3 -3 4 -12 1 -19z m-247 -512
l0 -505 -136 -3 c-75 -2 -138 0 -140 4 -3 4 1 16 7 26 10 15 24 19 73 19 57 0
58 0 16 -6 -80 -11 -50 -26 58 -29 65 -2 102 1 102 8 0 5 0 13 0 17 0 4 -7 8
-16 9 -23 4 -27 11 -19 31 7 16 9 15 15 -7 l8 -25 2 25 2 25 8 -25 c4 -14 8
192 9 458 1 265 3 482 6 482 3 0 5 -227 5 -504z m-11057 177 c-7 -2 -19 -2
-25 0 -7 3 -2 5 12 5 14 0 19 -2 13 -5z m307 -3 c0 -5 -8 -10 -17 -10 -15 0
-16 2 -3 10 19 12 20 12 20 0z m-463 -7 c-20 -2 -52 -2 -70 0 -17 2 0 4 38 4
39 0 53 -2 32 -4z m376 0 c-13 -2 -35 -2 -50 0 -16 2 -5 4 22 4 28 0 40 -2 28
-4z m-486 -9 c-3 -3 -12 -4 -19 -1 -8 3 -5 6 6 6 11 1 17 -2 13 -5z m253 -10
c0 -2 -51 -3 -112 -2 l-113 2 100 5 c94 6 125 4 125 -5z m367 10 c-3 -3 -12
-4 -19 -1 -8 3 -5 6 6 6 11 1 17 -2 13 -5z m76 -1 c-7 -2 -19 -2 -25 0 -7 3
-2 5 12 5 14 0 19 -2 13 -5z m-695 -20 c-10 -2 -28 -2 -40 0 -13 2 -5 4 17 4
22 1 32 -1 23 -4z m649 1 c-3 -3 -12 -4 -19 -1 -8 3 -5 6 6 6 11 1 17 -2 13
-5z m-720 -10 c-3 -3 -12 -4 -19 -1 -8 3 -5 6 6 6 11 1 17 -2 13 -5z m-187
-14 c0 -5 8 -10 18 -11 9 -1 -1 -5 -22 -10 -21 -5 -41 -7 -44 -4 -3 3 2 5 11
5 10 0 14 5 11 15 -4 9 0 15 10 15 9 0 16 -4 16 -10z m1115 -10 c13 -5 14 -9
5 -9 -8 0 -24 4 -35 9 -13 5 -14 9 -5 9 8 0 24 -4 35 -9z m-1183 -7 c-6 -2
-10 -8 -7 -13 5 -8 -66 -23 -74 -15 -2 3 10 8 28 11 17 4 34 11 37 15 3 5 11
9 17 8 9 0 8 -2 -1 -6z m1268 -3 c0 -5 -9 -10 -21 -10 -11 0 -17 5 -14 10 3 6
13 10 21 10 8 0 14 -4 14 -10z m100 6 c0 -2 -7 -7 -16 -10 -8 -3 -12 -2 -9 4
6 10 25 14 25 6z m107 -2 c-3 -3 -12 -4 -19 -1 -8 3 -5 6 6 6 11 1 17 -2 13
-5z m-1620 -10 c-3 -3 -12 -4 -19 -1 -8 3 -5 6 6 6 11 1 17 -2 13 -5z m58 -4
c-3 -5 -14 -10 -23 -9 -14 0 -13 2 3 9 27 11 27 11 20 0z m1506 0 c5 0 9 -4 9
-9 0 -12 -38 -2 -47 12 -4 7 0 8 11 4 10 -4 22 -7 27 -7z m89 -16 c0 -8 -4
-12 -10 -9 -5 3 -10 10 -10 16 0 5 5 9 10 9 6 0 10 -7 10 -16z m-1635 -4 l20
-9 -20 0 c-11 0 -27 4 -35 9 -13 9 -13 10 0 9 8 0 24 -4 35 -9z m1505 0 c20
-6 21 -8 5 -8 -11 0 -31 4 -45 8 -20 6 -21 8 -5 8 11 0 31 -4 45 -8z m50 -20
c0 -5 -2 -10 -4 -10 -3 0 -8 5 -11 10 -3 6 -1 10 4 10 6 0 11 -4 11 -10z
m-1600 -15 c-19 -7 -45 -14 -57 -14 -13 -1 -23 -5 -23 -11 0 -5 -4 -10 -9 -10
-5 0 -4 11 2 25 11 22 18 25 67 24 l55 -1 -35 -13z m11787 -242 c-1 -49 -3 -9
-3 87 0 96 2 136 3 88 2 -49 2 -127 0 -175z m-11928 221 c3 -4 -1 -5 -10 -2
-9 4 -22 2 -30 -2 -7 -5 -18 -5 -24 0 -5 4 -23 10 -40 13 -16 2 -1 3 34 1 35
-1 66 -6 70 -10z m2212 -14 c-10 -6 -34 -6 -73 -1 -5 1 -8 4 -8 9 0 4 21 5 46
3 26 -2 41 -7 35 -11z m-2381 0 c11 -7 3 -10 -30 -10 -25 0 -52 5 -60 10 -11
7 -3 10 30 10 25 0 52 -5 60 -10z m12070 0 c0 -5 -2 -10 -4 -10 -3 0 -8 5 -11
10 -3 6 -1 10 4 10 6 0 11 -4 11 -10z m-11951 -11 c16 7 36 11 43 8 7 -2 0 -8
-17 -12 -16 -4 -36 -12 -43 -18 -10 -8 -16 -7 -23 4 -7 12 -9 11 -9 -2 0 -23
-57 -46 -73 -30 -9 10 -8 11 5 6 11 -4 20 1 28 14 6 12 17 21 25 21 8 0 15 6
15 13 0 8 3 8 9 -2 8 -12 14 -12 40 -2z m-169 -89 c-50 -33 -80 -38 -80 -14 0
11 6 14 20 9 11 -4 20 -2 20 4 0 6 11 11 24 11 14 0 28 5 31 10 3 6 12 10 18
10 7 0 -8 -14 -33 -30z m-156 -45 c-22 -17 -34 -19 -34 -6 0 5 8 12 18 14 32
9 36 7 16 -8z m61 5 c3 -6 -1 -7 -9 -4 -18 7 -21 14 -7 14 6 0 13 -4 16 -10z
m3010 -310 c3 -6 -1 -7 -9 -4 -18 7 -21 14 -7 14 6 0 13 -4 16 -10z m4465
-2890 l0 -140 -40 0 -40 0 0 140 0 140 40 0 40 0 0 -140z m118 -2 l3 -138 -41
0 -40 0 0 141 0 140 38 -3 37 -3 3 -137z m-478 -3 l0 -135 -40 0 -40 0 0 135
0 135 40 0 40 0 0 -135z m120 0 l0 -135 -40 0 -40 0 0 135 0 135 40 0 40 0 0
-135z m120 -5 l0 -140 -40 0 -40 0 0 140 0 140 40 0 40 0 0 -140z m-240 -322
l0 -138 -40 0 -40 0 0 133 c0 74 3 137 6 140 4 3 22 6 40 5 l34 -1 0 -139z
m360 2 l0 -140 -40 0 -40 0 0 140 0 140 40 0 40 0 0 -140z m120 0 l0 -140 -40
0 -40 0 0 140 0 140 40 0 40 0 0 -140z m-360 -5 l0 -135 -40 0 -40 0 0 135 0
135 40 0 40 0 0 -135z m120 0 l0 -135 -40 0 -40 0 0 135 0 135 40 0 40 0 0
-135z m-240 -325 l0 -140 -40 0 -40 0 0 133 c0 74 3 137 7 140 3 4 21 7 40 7
l33 0 0 -140z m120 -1 l0 -139 -40 0 -40 0 0 133 c0 74 2 136 5 138 2 3 20 5
40 6 l35 1 0 -139z m240 1 l0 -140 -40 0 -40 0 0 140 0 140 40 0 40 0 0 -140z
m120 0 l0 -140 -40 0 -40 0 0 140 0 140 40 0 40 0 0 -140z m-240 -5 l0 -135
-40 0 -40 0 0 135 0 135 40 0 40 0 0 -135z m-240 -326 l0 -140 -37 3 -38 3 -3
124 c-1 69 0 131 2 138 3 7 21 13 41 13 l35 0 0 -141z m120 1 l0 -140 -40 0
-40 0 0 140 0 140 40 0 40 0 0 -140z m240 5 l0 -135 -24 0 c-13 0 -31 -3 -40
-6 -14 -5 -16 10 -16 135 l0 141 40 0 40 0 0 -135z m120 -5 l0 -140 -40 0 -40
0 0 140 0 140 40 0 40 0 0 -140z m120 5 l0 -135 -40 0 -40 0 0 135 0 135 40 0
40 0 0 -135z m-360 -10 l0 -135 -40 0 -40 0 0 135 0 135 40 0 40 0 0 -135z
m-10110 15 l0 -60 -120 0 -120 0 0 53 c0 30 3 57 7 60 3 4 57 7 120 7 l113 0
0 -60z m270 0 l0 -60 -120 0 -120 0 0 60 0 60 120 0 120 0 0 -60z m264 -3 l1
-57 -117 0 -118 0 0 60 0 61 116 -3 116 -3 2 -58z m266 3 l0 -60 -120 0 -120
0 0 53 c0 30 3 57 7 60 3 4 57 7 120 7 l113 0 0 -60z m270 0 l0 -60 -120 0
-120 0 0 60 0 60 120 0 120 0 0 -60z m-1070 -170 l0 -60 -120 0 -120 0 0 53
c0 30 3 57 7 60 3 4 57 7 120 7 l113 0 0 -60z m270 0 l0 -60 -120 0 -120 0 0
60 0 60 120 0 120 0 0 -60z m264 -3 l1 -57 -117 0 -118 0 0 60 0 61 117 -3
117 -3 0 -58z m266 3 l0 -60 -120 0 -120 0 0 53 c0 30 3 57 7 60 3 4 57 7 120
7 l113 0 0 -60z m270 0 l0 -60 -120 0 -120 0 0 60 0 60 120 0 120 0 0 -60z
m4860 -26 l0 -65 -52 3 -53 3 -3 63 -3 62 56 0 55 0 0 -66z m148 4 l-3 -63
-50 0 -50 0 -3 63 -3 62 56 0 56 0 -3 -62z m150 0 l-3 -63 -52 -3 -53 -3 0 65
0 66 55 0 56 0 -3 -62z m150 0 l-4 -63 -52 0 c-29 0 -52 3 -52 8 0 4 0 32 0
62 l0 55 56 0 56 0 -4 -62z m142 -4 l0 -65 -52 3 -53 3 -3 63 -3 62 56 0 55 0
0 -66z m6038 4 l-3 -63 -52 -3 -53 -3 0 65 0 66 55 0 56 0 -3 -62z m149 0 l-4
-63 -51 -3 -52 -3 0 65 0 66 56 0 56 0 -5 -62z m143 -4 l0 -65 -52 3 -53 3 2
60 c1 33 2 61 2 63 1 1 24 2 51 2 l50 0 0 -66z m150 0 l0 -65 -52 3 -53 3 -3
63 -3 62 56 0 55 0 0 -66z m148 4 l-3 -63 -52 -3 -53 -3 0 65 0 66 55 0 56 0
-3 -62z m-8328 -44 l0 -65 -52 3 -53 3 -3 63 -3 62 56 0 55 0 0 -66z m140 1
l0 -65 -55 0 -55 0 0 65 0 65 55 0 55 0 0 -65z m138 3 l-3 -63 -52 -3 -53 -3
0 65 0 66 55 0 56 0 -3 -62z m133 45 c1 -10 2 -38 3 -63 l1 -45 -52 -3 -53 -3
0 65 0 66 50 0 c40 0 50 -3 51 -17z m-1891 -68 l0 -65 -125 0 -125 0 0 65 0
65 125 0 125 0 0 -65z m310 0 l0 -65 -125 0 -125 0 0 65 0 65 125 0 125 0 0
-65z m310 0 l0 -65 -128 0 -129 0 3 63 c2 34 3 63 3 65 1 1 57 2 126 2 l125 0
0 -65z m308 -2 l3 -63 -131 0 -130 0 0 58 c0 32 3 62 7 66 4 3 61 5 127 4
l121 -3 3 -62z m11232 2 l0 -65 -125 0 -125 0 0 65 0 65 125 0 125 0 0 -65z
m310 0 l0 -65 -125 0 -125 0 0 65 0 65 125 0 125 0 0 -65z m310 0 l0 -65 -125
0 -125 0 0 65 0 65 125 0 125 0 0 -65z m310 0 l0 -65 -125 0 -125 0 0 65 0 65
125 0 125 0 0 -65z m-6560 -86 l0 -140 -37 3 -38 3 -3 138 -3 137 41 0 40 0 0
-141z m120 1 l0 -140 -40 0 -40 0 0 140 0 140 40 0 40 0 0 -140z m118 -2 l3
-138 -41 0 -40 0 0 133 c0 74 2 136 5 139 3 3 20 5 38 4 l32 -1 3 -137z m122
7 l0 -135 -40 0 -40 0 0 135 0 135 40 0 40 0 0 -135z m120 -5 l0 -140 -40 0
-40 0 0 140 0 140 40 0 40 0 0 -140z m120 5 l0 -135 -40 0 -40 0 0 135 0 135
40 0 40 0 0 -135z m-10472 -7 c-2 -35 -6 -62 -10 -60 -5 1 -57 2 -118 2 l-110
0 0 53 c0 30 3 57 7 60 3 4 58 7 120 7 l114 0 -3 -62z m267 -1 l0 -58 -115 -1
-115 0 -3 62 -3 61 118 -3 118 -3 0 -58z m270 0 l0 -58 -118 -2 -117 -2 0 63
0 63 118 -3 117 -3 0 -58z m263 1 c-2 -35 -6 -62 -10 -60 -5 1 -57 2 -118 2
l-110 0 0 53 c0 30 3 57 7 60 3 4 58 7 120 7 l114 0 -3 -62z m272 2 l0 -60
-120 0 -120 0 0 60 0 60 120 0 120 0 0 -60z m4860 -5 l0 -65 -55 0 -55 0 0 65
0 65 55 0 55 0 0 -65z m150 0 l0 -65 -55 0 -55 0 0 65 0 65 55 0 55 0 0 -65z
m150 0 l0 -65 -55 0 -55 0 0 65 0 65 55 0 55 0 0 -65z m148 3 l-3 -63 -52 -3
-53 -3 0 65 0 66 55 0 56 0 -3 -62z m142 -4 l0 -65 -52 3 -53 3 -3 63 -3 62
56 0 55 0 0 -66z m6038 4 l-3 -63 -52 -3 -53 -3 0 65 0 66 55 0 56 0 -3 -62z
m147 -3 l0 -60 -52 -3 -53 -3 0 66 0 66 53 -3 52 -3 0 -60z m145 0 l0 -65 -49
0 c-27 0 -51 4 -53 10 -1 5 -1 35 0 65 l4 55 49 0 49 0 0 -65z m150 0 l0 -65
-55 0 -55 0 0 65 0 65 55 0 55 0 0 -65z m150 0 l0 -65 -55 0 -55 0 0 65 0 65
55 0 55 0 0 -65z m-8332 -47 l-3 -63 -50 0 -50 0 -3 63 -3 62 56 0 56 0 -3
-62z m140 0 l-3 -63 -50 0 -50 0 -3 63 -3 62 56 0 56 0 -3 -62z m140 0 l-3
-63 -52 -3 -53 -3 0 65 0 66 55 0 56 0 -3 -62z m135 35 c3 -16 4 -44 3 -63 -1
-35 -1 -35 -53 -38 l-53 -3 0 65 0 66 49 0 c46 0 50 -2 54 -27z m1537 -140 l0
-143 -40 0 -40 0 0 138 c0 76 3 142 6 145 4 3 22 6 40 5 l34 -1 0 -144z m123
135 c-2 -5 -3 -69 -3 -143 l0 -135 -40 0 -40 0 0 138 c0 76 3 142 7 146 9 9
79 3 76 -6z m117 -133 l0 -145 -40 0 -40 0 0 138 c0 76 2 141 5 143 2 3 20 6
40 7 l35 3 0 -146z m125 0 l0 -140 -42 -3 -43 -3 0 139 c0 76 3 141 6 144 3 4
22 5 42 4 l37 -2 0 -139z m-5375 9 l0 -105 -52 3 -53 3 -3 89 c-2 49 -1 95 2
103 4 8 23 13 56 13 l50 0 0 -106z m128 -1 l3 -103 -56 0 -55 0 0 98 c0 54 3
102 7 106 4 4 28 6 53 4 l45 -3 3 -102z m130 -1 l3 -102 -56 0 -55 0 0 98 c0
54 3 102 7 106 4 4 28 6 53 4 l45 -3 3 -103z m130 1 l3 -103 -56 0 -55 0 0 98
c0 54 3 102 7 106 4 4 28 6 53 4 l45 -3 3 -102z m127 2 l0 -100 -52 -3 -53 -3
0 99 c0 54 3 102 7 106 4 4 28 6 53 4 l45 -3 0 -100z m133 -3 l3 -102 -56 0
-55 0 0 98 c0 54 3 102 7 106 4 4 28 6 53 4 l45 -3 3 -103z m127 3 l0 -100
-52 -3 -53 -3 0 99 c0 54 3 102 7 106 4 4 28 6 53 4 l45 -3 0 -100z m495 38
l0 -63 -125 0 -125 0 0 58 c0 32 3 62 7 66 4 4 60 6 125 5 l118 -2 0 -64z
m310 2 l0 -65 -125 0 -125 0 0 65 0 65 125 0 125 0 0 -65z m308 -2 l3 -63
-126 0 -125 0 0 65 0 66 123 -3 122 -3 3 -62z m310 0 l3 -63 -126 0 c-93 0
-125 3 -126 13 -4 40 -4 103 -1 110 2 4 58 6 125 5 l122 -3 3 -62z m310 0 l3
-63 -131 0 -130 0 0 58 c0 32 3 61 6 65 3 3 60 5 127 4 l122 -2 3 -62z m10930
0 l3 -63 -131 0 -130 0 0 58 c0 32 3 62 7 66 4 3 61 5 127 4 l121 -3 3 -62z
m302 2 l0 -65 -125 0 -125 0 0 58 c0 32 3 62 7 65 3 4 60 7 125 7 l118 0 0
-65z m308 -2 l3 -63 -126 0 -125 0 0 58 c0 32 3 62 7 66 4 3 59 5 122 4 l116
-3 3 -62z m312 2 l0 -65 -125 0 -125 0 0 65 0 65 125 0 125 0 0 -65z m308 -2
l3 -63 -126 0 -125 0 0 65 0 66 123 -3 122 -3 3 -62z m-10498 -48 l0 -65 -55
0 -55 0 0 65 0 65 55 0 55 0 0 -65z m150 0 l0 -65 -55 0 -55 0 0 65 0 65 55 0
55 0 0 -65z m150 0 l0 -65 -55 0 -55 0 0 65 0 65 55 0 55 0 0 -65z m143 0 l1
-60 -52 -3 -52 -3 0 66 0 66 51 -3 51 -3 1 -60z m147 0 l0 -65 -55 0 -55 0 0
58 c0 32 3 62 7 65 3 4 28 7 55 7 l48 0 0 -65z m6040 0 l0 -65 -55 0 -55 0 0
65 0 65 55 0 55 0 0 -65z m145 0 l0 -60 -52 -3 -53 -3 0 66 0 66 53 -3 52 -3
0 -60z m145 0 l0 -65 -49 0 c-30 0 -51 5 -53 13 -4 10 -3 82 1 110 0 4 24 7
51 7 l50 0 0 -65z m150 0 l0 -65 -55 0 -55 0 0 65 0 65 55 0 55 0 0 -65z m150
0 l0 -65 -55 0 -55 0 0 65 0 65 55 0 55 0 0 -65z m-13150 -20 l0 -66 -117 3
-118 3 -3 49 c-5 77 -7 76 123 76 l115 0 0 -65z m268 2 l-3 -62 -115 0 -115 0
-3 62 -3 62 121 0 121 -1 -3 -61z m267 -2 l0 -60 -118 -2 -117 -2 0 65 0 65
118 -3 117 -3 0 -60z m265 0 l0 -66 -117 3 -118 3 -3 49 c-5 77 -7 76 123 76
l115 0 0 -65z m265 0 l0 -60 -115 0 -115 0 -3 63 -3 63 118 -3 118 -3 0 -60z
m3755 -35 l0 -60 -55 0 -55 0 0 60 0 60 55 0 55 0 0 -60z m140 0 l0 -60 -55 0
-55 0 0 60 0 60 55 0 55 0 0 -60z m140 0 l0 -60 -55 0 -55 0 0 60 0 60 55 0
55 0 0 -60z m135 0 l0 -60 -52 0 -53 0 0 60 0 60 53 0 52 0 0 -60z m4635 -121
l0 -140 -37 3 -38 3 -3 138 -3 137 41 0 40 0 0 -141z m120 1 l0 -140 -40 0
-40 0 0 140 0 140 40 0 40 0 0 -140z m120 0 l0 -140 -40 0 -40 0 0 140 0 140
40 0 40 0 0 -140z m120 5 l0 -135 -40 0 -40 0 0 135 0 135 40 0 40 0 0 -135z
m120 0 l0 -135 -40 0 -40 0 0 135 0 135 40 0 40 0 0 -135z m120 0 l0 -135 -40
0 -40 0 0 135 0 135 40 0 40 0 0 -135z m-7440 25 l0 -60 -125 0 -125 0 0 60 0
60 125 0 125 0 0 -60z m310 0 l0 -60 -125 0 -125 0 0 60 0 60 125 0 125 0 0
-60z m310 0 l0 -60 -125 0 -125 0 0 60 0 60 125 0 125 0 0 -60z m310 0 l0 -60
-127 0 -128 0 -1 60 0 60 128 0 128 0 0 -60z m310 0 l0 -60 -130 0 -130 0 0
60 0 60 130 0 130 0 0 -60z m1660 -5 l0 -65 -55 0 -55 0 0 58 c0 32 3 62 7 65
3 4 28 7 55 7 l48 0 0 -65z m150 0 l0 -65 -55 0 -55 0 0 65 0 65 55 0 55 0 0
-65z m148 -2 l3 -63 -56 0 -55 0 0 66 0 65 53 -3 52 -3 3 -62z m150 0 l3 -63
-55 0 -54 0 -4 61 c-1 33 -1 63 2 65 2 3 27 4 55 2 l50 -3 3 -62z m142 2 l0
-65 -53 0 -54 0 -2 55 c-1 30 1 60 4 65 3 6 28 10 56 10 l49 0 0 -65z m6038
-2 l3 -63 -56 0 -55 0 0 66 0 65 53 -3 52 -3 3 -62z m150 0 l4 -63 -56 0 -56
0 0 66 0 65 53 -3 52 -3 3 -62z m142 2 l0 -65 -50 0 -50 0 0 65 0 65 50 0 50
0 0 -65z m150 0 l0 -65 -55 0 -55 0 0 65 0 65 55 0 55 0 0 -65z m150 0 l0 -65
-55 0 -55 0 0 65 0 65 55 0 55 0 0 -65z m2050 5 l0 -60 -130 0 -130 0 0 60 0
60 130 0 130 0 0 -60z m300 0 l0 -60 -125 0 -125 0 0 60 0 60 125 0 125 0 0
-60z m310 0 l0 -60 -125 0 -125 0 0 60 0 60 125 0 125 0 0 -60z m310 0 l0 -60
-125 0 -125 0 0 60 0 60 125 0 125 0 0 -60z m310 0 l0 -60 -125 0 -125 0 0 60
0 60 125 0 125 0 0 -60z m-16162 -48 l-3 -57 -115 0 -115 0 -3 57 c-3 67 -9
65 141 60 l98 -3 -3 -57z m1492 -32 l0 -100 -55 0 -55 0 0 100 0 100 55 0 55
0 0 -100z m130 0 l0 -100 -55 0 -55 0 0 100 0 100 55 0 55 0 0 -100z m130 0
l0 -100 -55 0 -55 0 0 100 0 100 55 0 55 0 0 -100z m130 0 l0 -100 -55 0 -55
0 0 100 0 100 55 0 55 0 0 -100z m130 0 l0 -100 -55 0 -55 0 0 100 0 100 55 0
55 0 0 -100z m130 0 l0 -100 -55 0 -55 0 0 100 0 100 55 0 55 0 0 -100z m130
0 l0 -100 -55 0 -55 0 0 100 0 100 55 0 55 0 0 -100z m-2540 30 l0 -61 -117 3
-118 3 -3 58 -3 57 121 0 120 0 0 -60z m537 3 l-4 -58 -116 -3 -117 -3 0 61 0
60 120 0 120 0 -3 -57z m263 -3 l0 -61 -117 3 -118 3 -3 58 -3 57 121 0 120 0
0 -60z m268 3 l-3 -58 -117 -3 -118 -3 0 61 0 60 120 0 121 0 -3 -57z m3740
38 c8 -1 12 -20 12 -61 l0 -60 -55 0 -55 0 0 58 c0 32 2 61 4 63 4 4 63 4 94
0z m150 -59 l3 -62 -56 0 -55 0 0 58 c0 32 2 61 4 63 3 2 26 4 53 4 l48 -1 3
-62z m140 1 l3 -63 -56 0 -55 0 0 63 0 62 53 0 52 0 3 -62z m136 37 c-1 -14
-2 -42 -3 -62 l-1 -38 -50 0 -50 0 0 63 0 62 53 0 c49 0 52 -1 51 -25z m1536
-140 l0 -140 -40 0 -40 0 0 140 0 140 40 0 40 0 0 -140z m120 0 l0 -140 -40 0
-40 0 0 140 0 140 40 0 40 0 0 -140z m123 3 l-2 -138 -40 -3 -41 -3 0 140 0
141 43 0 42 0 -2 -137z m127 -3 l0 -140 -45 0 -45 0 0 140 0 140 45 0 45 0 0
-140z m1788 32 l3 -103 -53 3 -53 3 -3 89 c-2 49 -1 94 1 100 3 6 27 11 53 11
l49 0 3 -103z m130 99 c9 -1 12 -28 12 -102 l0 -100 -52 3 -53 3 -3 89 c-2 49
-1 95 2 101 4 10 26 12 94 6z m150 -98 l3 -103 -56 0 -55 0 0 98 c0 54 3 102
7 105 3 4 27 6 52 5 l46 -3 3 -102z m137 2 l0 -100 -52 -3 -53 -3 0 104 0 105
53 -1 52 -2 0 -100z m140 0 l0 -100 -52 -3 -53 -3 0 104 0 104 53 -1 52 -1 0
-100z m4280 -1 l0 -99 -52 -3 -53 -3 0 104 0 105 53 -2 52 -3 0 -99z m140 1
l0 -100 -52 -3 -53 -3 0 106 0 106 53 -3 52 -3 0 -100z m135 -3 l0 -103 -52 3
-53 3 -1 95 c-1 52 0 98 2 101 2 3 26 6 54 5 l50 0 0 -104z m140 2 l0 -105
-52 3 -53 3 -3 89 c-2 49 -1 95 2 103 4 8 23 13 56 13 l50 0 0 -106z m138 -3
l3 -102 -53 3 -53 3 -3 89 c-2 49 -1 95 2 101 2 7 23 11 53 10 l48 -1 3 -103z
m-8388 -21 l0 -60 -55 0 -55 0 0 60 0 60 55 0 55 0 0 -60z m150 1 l0 -59 -51
-4 c-28 -1 -53 -1 -55 1 -2 2 -4 31 -4 63 l0 58 55 0 55 0 0 -59z m148 -3 l-3
-62 -50 0 -50 1 -3 61 -3 62 56 0 56 0 -3 -62z m152 2 c0 -50 -3 -60 -17 -61
-10 0 -35 -1 -55 -2 l-37 -2 -3 63 -3 62 58 0 57 0 0 -60z m140 1 l0 -59 -51
-4 c-28 -1 -53 -1 -55 1 -2 2 -4 31 -4 63 l0 58 55 0 55 0 0 -59z m6040 -1 l0
-60 -55 0 -55 0 0 60 0 60 55 0 55 0 0 -60z m146 3 c-1 -32 -4 -59 -8 -60 -5
-2 -28 -3 -53 -3 l-45 0 0 60 0 60 53 0 53 0 0 -57z m144 -3 l0 -60 -52 0 -53
0 0 60 0 60 53 0 52 0 0 -60z m150 1 l0 -59 -51 -4 c-28 -1 -53 -1 -55 1 -2 2
-4 31 -4 63 l0 58 55 0 55 0 0 -59z m150 -1 l0 -60 -55 0 -55 0 0 60 0 60 55
0 55 0 0 -60z m-10120 -35 l0 -66 -122 3 -123 3 -3 63 -3 62 126 0 125 0 0
-65z m310 0 l0 -65 -125 0 -125 0 0 65 0 65 125 0 125 0 0 -65z m308 3 l-3
-63 -99 -3 c-145 -5 -146 -4 -146 68 l0 60 125 0 126 0 -3 -62z m310 0 l-3
-63 -125 0 -125 0 0 62 0 63 128 0 128 0 -3 -62z m310 0 l-3 -63 -125 0 -125
0 -3 63 -3 62 131 0 132 0 -4 -62z m10930 0 l-3 -63 -125 0 -125 0 -3 63 -3
62 131 0 131 0 -3 -62z m302 -3 l0 -66 -122 3 -123 3 -3 63 -3 62 126 0 125 0
0 -65z m310 0 l0 -66 -122 3 -123 3 -3 63 -3 62 126 0 125 0 0 -65z m308 3
l-3 -63 -122 -3 -123 -3 0 66 0 65 125 0 126 0 -3 -62z m310 0 l-3 -63 -122
-3 -123 -3 0 66 0 65 125 0 126 0 -3 -62z m-16428 -28 l0 -61 -117 3 -118 3
-3 58 -3 57 121 0 120 0 0 -60z m270 0 l0 -60 -120 0 -120 0 0 60 0 60 120 0
120 0 0 -60z m268 3 l-3 -58 -117 -3 -118 -3 0 61 0 60 120 0 120 0 -2 -57z
m262 -3 l0 -60 -120 0 -120 0 0 60 0 60 120 0 120 0 0 -60z m270 0 l0 -60
-120 0 -120 0 0 60 0 60 120 0 120 0 0 -60z m3750 -5 l0 -65 -55 0 -55 0 0 58
c0 32 3 62 7 65 3 4 28 7 55 7 l48 0 0 -65z m138 -2 l3 -63 -56 0 -55 0 0 66
0 65 53 -3 52 -3 3 -62z m140 0 l3 -63 -56 0 -55 0 0 66 0 65 53 -3 52 -3 3
-62z m136 0 l2 -63 -53 0 -53 0 0 66 0 65 51 -3 50 -3 3 -62z m-3474 -88 l0
-105 -55 0 -55 0 0 99 0 100 53 4 c28 2 53 4 55 5 1 1 2 -45 2 -103z m130 -5
l0 -100 -55 0 -55 0 0 100 0 100 55 0 55 0 0 -100z m130 0 l0 -100 -55 0 -55
0 0 100 0 100 55 0 55 0 0 -100z m130 0 l0 -100 -55 0 -55 0 0 100 0 100 55 0
55 0 0 -100z m130 0 l0 -100 -55 0 -55 0 0 100 0 100 55 0 55 0 0 -100z m130
0 l0 -100 -55 0 -55 0 0 100 0 100 55 0 55 0 0 -100z m130 0 l0 -100 -55 0
-55 0 0 100 0 100 55 0 55 0 0 -100z m3390 5 l0 -65 -55 0 -55 0 0 65 0 65 55
0 55 0 0 -65z m150 0 l0 -65 -55 0 -55 0 0 65 0 65 55 0 55 0 0 -65z m150 0
l0 -65 -55 0 -55 0 0 65 0 65 55 0 55 0 0 -65z m147 3 l-2 -63 -52 -3 -53 -3
0 65 0 66 54 0 54 0 -1 -62z m143 -4 l0 -65 -52 3 -53 3 -3 63 -3 62 56 0 55
0 0 -66z m6038 4 l-3 -63 -52 -3 -53 -3 0 65 0 66 55 0 56 0 -3 -62z m147 -3
l0 -60 -52 -3 -53 -3 0 66 0 66 52 -3 53 -3 0 -60z m145 0 l0 -65 -50 0 -50 0
0 65 0 65 50 0 50 0 0 -65z m150 0 l0 -65 -55 0 -55 0 0 65 0 65 55 0 55 0 0
-65z m150 0 l0 -65 -55 0 -55 0 0 65 0 65 55 0 55 0 0 -65z m-4220 -66 l0 -99
-55 0 -55 0 0 98 c0 54 2 101 4 103 2 2 27 2 55 1 l51 -4 0 -99z m4838 0 l-3
-94 -52 -3 -53 -3 0 100 0 100 48 3 c26 2 51 0 55 -3 4 -3 6 -48 5 -100z m272
5 l0 -105 -52 3 -53 3 -3 97 -3 97 53 4 c29 2 54 4 56 5 1 1 2 -45 2 -104z
m-4970 -4 l0 -100 -55 0 -55 0 0 100 0 100 55 0 55 0 0 -100z m140 0 l0 -100
-55 0 -55 0 0 100 0 100 55 0 55 0 0 -100z m140 0 l0 -100 -55 0 -55 0 0 100
0 100 55 0 55 0 0 -100z m138 3 l-3 -98 -52 -3 -53 -3 0 100 0 101 55 0 56 0
-3 -97z m4420 0 l-3 -98 -52 -3 -53 -3 0 100 0 101 55 0 56 0 -3 -97z m272 -4
l0 -100 -52 3 -53 3 -3 98 -3 97 56 0 55 0 0 -101z m140 1 l0 -100 -55 0 -55
0 0 100 0 100 55 0 55 0 0 -100z m-11290 -5 l0 -65 -125 0 -125 0 0 65 0 65
125 0 125 0 0 -65z m310 0 l0 -65 -125 0 -125 0 0 65 0 65 125 0 125 0 0 -65z
m310 0 l0 -65 -125 0 -125 0 0 65 0 65 125 0 125 0 0 -65z m310 0 l0 -66 -127
3 -127 3 -2 63 -2 62 129 0 129 0 0 -65z m305 0 l0 -60 -125 0 -125 0 -3 63
-3 63 128 -3 128 -3 0 -60z m555 0 l0 -65 -55 0 -55 0 0 65 0 65 55 0 55 0 0
-65z m140 0 l0 -65 -55 0 -55 0 0 65 0 65 55 0 55 0 0 -65z m138 -2 l3 -63
-56 0 -55 0 0 66 0 65 53 -3 52 -3 3 -62z m135 2 l0 -60 -52 -3 -51 -3 0 66 0
66 51 -3 52 -3 0 -60z m9965 3 l-3 -63 -127 -3 -128 -3 0 66 0 65 130 0 131 0
-3 -62z m302 -3 l0 -65 -125 0 -125 0 0 65 0 65 125 0 125 0 0 -65z m310 0 l0
-65 -125 0 -125 0 0 65 0 65 125 0 125 0 0 -65z m310 0 l0 -65 -125 0 -125 0
0 65 0 65 125 0 125 0 0 -65z m310 0 l0 -65 -125 0 -125 0 0 65 0 65 125 0
125 0 0 -65z m-16430 -5 l0 -60 -120 0 -120 0 0 60 0 60 120 0 120 0 0 -60z
m270 0 l0 -60 -120 0 -120 0 0 60 0 60 120 0 120 0 0 -60z m265 3 l-2 -58
-116 -3 -117 -3 0 61 0 60 118 0 118 0 -1 -57z m265 -3 l0 -60 -120 0 -120 0
0 60 0 60 120 0 120 0 0 -60z m270 0 l0 -60 -120 0 -120 0 0 60 0 60 120 0
120 0 0 -60z m5700 -90 l0 -140 -40 0 -40 0 0 140 0 140 40 0 40 0 0 -140z
m120 0 l0 -140 -40 0 -40 0 0 140 0 140 40 0 40 0 0 -140z m120 0 l0 -140 -40
0 -40 0 0 140 0 140 40 0 40 0 0 -140z m127 3 l-2 -138 -42 -3 -43 -3 0 140 0
141 44 0 45 0 -2 -137z m-1207 12 l0 -65 -55 0 -55 0 0 65 0 65 55 0 55 0 0
-65z m150 0 l0 -65 -55 0 -55 0 0 65 0 65 55 0 55 0 0 -65z m150 0 l0 -65 -55
0 -55 0 0 65 0 65 55 0 55 0 0 -65z m144 0 l1 -60 -52 -3 -53 -3 0 66 0 66 52
-3 52 -3 0 -60z m146 -1 l0 -65 -52 3 -53 3 -3 49 c-5 70 0 76 58 76 l50 0 0
-66z m6040 1 l0 -65 -55 0 -55 0 0 65 0 65 55 0 55 0 0 -65z m145 0 l0 -60
-52 -3 -53 -3 0 66 0 66 52 -3 53 -3 0 -60z m145 -1 l0 -65 -52 3 c-47 3 -52
5 -51 26 0 12 1 40 2 62 l1 40 50 0 50 0 0 -66z m150 1 l0 -65 -55 0 -55 0 0
65 0 65 55 0 55 0 0 -65z m150 0 l0 -65 -55 0 -55 0 0 65 0 65 55 0 55 0 0
-65z m-5430 -25 l0 -61 -117 3 -118 3 -3 58 -3 57 121 0 120 0 0 -60z m290 0
l0 -60 -120 0 -120 0 0 60 0 60 120 0 120 0 0 -60z m290 0 l0 -60 -120 0 -120
0 0 60 0 60 120 0 120 0 0 -60z m290 0 l0 -60 -120 0 -120 0 0 60 0 60 120 0
120 0 0 -60z m-6830 -60 l0 -100 -55 0 -55 0 0 100 0 100 55 0 55 0 0 -100z
m130 0 l0 -100 -55 0 -55 0 0 100 0 100 55 0 55 0 0 -100z m130 0 l0 -100 -55
0 -55 0 0 100 0 100 55 0 55 0 0 -100z m130 0 l0 -100 -55 0 -55 0 0 100 0
100 55 0 55 0 0 -100z m130 0 l0 -100 -55 0 -55 0 0 100 0 100 55 0 55 0 0
-100z m130 0 l0 -100 -55 0 -55 0 0 100 0 100 55 0 55 0 0 -100z m130 0 l0
-100 -55 0 -55 0 0 100 0 100 55 0 55 0 0 -100z m2280 5 l0 -65 -55 0 -55 0 0
65 0 65 55 0 55 0 0 -65z m140 0 l0 -65 -55 0 -55 0 0 65 0 65 55 0 55 0 0
-65z m140 0 l0 -65 -55 0 -55 0 0 65 0 65 55 0 55 0 0 -65z m133 5 c0 -30 -1
-58 -2 -62 -1 -5 -23 -8 -51 -8 l-50 0 0 66 0 65 52 -3 53 -3 -2 -55z m-5233
-20 l0 -61 -117 3 -118 3 -3 58 -3 57 121 0 120 0 0 -60z m270 0 l0 -60 -120
0 -120 0 0 60 0 60 120 0 120 0 0 -60z m268 3 l-3 -58 -117 -3 -118 -3 0 61 0
60 120 0 121 0 -3 -57z m262 -3 l0 -60 -120 0 -120 0 0 60 0 60 120 0 120 0 0
-60z m270 0 l0 -60 -120 0 -120 0 0 60 0 60 120 0 120 0 0 -60z m1960 -15 l0
-65 -125 0 -125 0 0 65 0 65 125 0 125 0 0 -65z m310 0 l0 -65 -125 0 -125 0
0 65 0 65 125 0 125 0 0 -65z m310 0 l0 -65 -125 0 -125 0 0 65 0 65 125 0
125 0 0 -65z m310 0 l0 -66 -127 3 -128 3 -3 49 c-5 78 -8 76 133 76 l125 0 0
-65z m305 0 l0 -60 -127 -3 -128 -3 0 66 0 66 128 -3 127 -3 0 -60z m10933 3
l-3 -63 -127 -3 -128 -3 0 66 0 65 130 0 131 0 -3 -62z m302 -3 l0 -65 -125 0
-125 0 0 65 0 65 125 0 125 0 0 -65z m310 0 l0 -65 -125 0 -125 0 0 65 0 65
125 0 125 0 0 -65z m310 0 l0 -65 -125 0 -125 0 0 65 0 65 125 0 125 0 0 -65z
m310 0 l0 -65 -125 0 -125 0 0 65 0 65 125 0 125 0 0 -65z m-7500 -45 l0 -100
-55 0 -55 0 0 100 0 100 55 0 55 0 0 -100z m140 0 l0 -100 -55 0 -55 0 0 100
0 100 55 0 55 0 0 -100z m140 0 l0 -100 -55 0 -55 0 0 100 0 100 55 0 55 0 0
-100z m140 0 l0 -100 -55 0 -55 0 0 100 0 100 55 0 55 0 0 -100z m140 0 l0
-100 -55 0 -55 0 0 100 0 100 55 0 55 0 0 -100z m4280 0 l0 -100 -55 0 -55 0
0 100 0 100 55 0 55 0 0 -100z m138 3 l-3 -98 -52 -3 -53 -3 0 100 0 101 55 0
56 0 -3 -97z m132 -3 l0 -100 -55 0 -55 0 0 100 0 100 55 0 55 0 0 -100z m140
0 l0 -100 -55 0 -55 0 0 100 0 100 55 0 55 0 0 -100z m140 0 l0 -100 -55 0
-55 0 0 100 0 100 55 0 55 0 0 -100z m-6600 -20 l0 -60 -120 0 -120 0 0 53 c0
30 3 57 7 60 3 4 57 7 120 7 l113 0 0 -60z m290 0 l0 -60 -120 0 -120 0 0 60
0 60 120 0 120 0 0 -60z m290 0 l0 -60 -120 0 -120 0 0 60 0 60 120 0 120 0 0
-60z m290 0 l0 -60 -120 0 -120 0 0 60 0 60 120 0 120 0 0 -60z m-1820 -150
l0 -140 -40 0 -40 0 0 140 0 140 40 0 40 0 0 -140z m120 0 l0 -140 -40 0 -40
0 0 140 0 140 40 0 40 0 0 -140z m120 0 l0 -140 -40 0 -40 0 0 140 0 140 40 0
40 0 0 -140z m128 -2 l3 -138 -46 0 -45 0 0 141 0 140 43 -3 42 -3 3 -137z
m3950 85 l-3 -58 -117 -3 -118 -3 0 61 0 60 120 0 121 0 -3 -57z m272 -3 l0
-60 -115 0 c-112 0 -115 1 -116 23 -1 12 -3 36 -4 52 -1 17 0 33 2 38 2 4 56
7 119 7 l114 0 0 -60z m280 0 l0 -61 -117 3 -118 3 -3 58 -3 57 121 0 120 0 0
-60z m-11640 -20 l0 -61 -117 3 -118 3 -3 58 -3 57 121 0 120 0 0 -60z m270 0
l0 -60 -120 0 -120 0 0 60 0 60 120 0 120 0 0 -60z m264 3 l-2 -58 -116 -3
-116 -3 0 61 0 60 118 0 118 0 -2 -57z m266 -3 l0 -61 -117 3 -118 3 -3 58 -3
57 121 0 120 0 0 -60z m270 0 l0 -60 -120 0 -120 0 0 60 0 60 120 0 120 0 0
-60z m1960 -35 l0 -65 -125 0 -125 0 0 65 0 65 125 0 125 0 0 -65z m310 0 l0
-65 -125 0 -125 0 0 65 0 65 125 0 125 0 0 -65z m310 0 l0 -65 -125 0 -125 0
0 65 0 65 125 0 125 0 0 -65z m310 0 l0 -66 -127 3 -126 3 1 55 c0 30 1 58 1
63 1 4 57 7 126 7 l125 0 0 -65z m306 -2 l2 -63 -129 0 -129 0 0 58 c0 32 3
62 7 66 4 3 61 5 127 4 l121 -3 1 -62z m3454 -33 l0 -61 -117 3 -118 3 -3 58
-3 57 121 0 120 0 0 -60z m290 0 l0 -60 -120 0 -120 0 0 60 0 60 120 0 120 0
0 -60z m290 0 l0 -60 -120 0 -120 0 0 60 0 60 120 0 120 0 0 -60z m288 3 l-3
-58 -117 -3 -118 -3 0 61 0 60 120 0 121 0 -3 -57z m342 -63 l0 -100 -55 0
-55 0 0 100 0 100 55 0 55 0 0 -100z m140 0 l0 -100 -55 0 -55 0 0 100 0 100
55 0 55 0 0 -100z m140 0 l0 -100 -55 0 -55 0 0 100 0 100 55 0 55 0 0 -100z
m140 0 l0 -100 -55 0 -55 0 0 100 0 100 55 0 55 0 0 -100z m140 0 l0 -100 -55
0 -55 0 0 100 0 100 55 0 55 0 0 -100z m4280 0 l0 -100 -55 0 -55 0 0 100 0
100 55 0 55 0 0 -100z m140 0 l0 -100 -55 0 -55 0 0 100 0 100 55 0 55 0 0
-100z m130 0 l0 -100 -55 0 -56 0 2 100 1 100 54 0 54 0 0 -100z m140 0 l0
-100 -55 0 -55 0 0 100 0 100 55 0 55 0 0 -100z m140 0 l0 -100 -55 0 -55 0 0
100 0 100 55 0 55 0 0 -100z m-3235 -23 l0 -58 -118 -2 -117 -2 0 63 0 63 118
-3 117 -3 0 -58z m275 1 l0 -63 -116 5 -117 5 1 53 c0 28 1 54 1 57 1 3 53 5
116 5 l115 0 0 -62z m278 0 l3 -58 -121 0 -120 0 0 53 c0 30 3 57 7 61 4 3 57
5 117 4 l111 -3 3 -57z m-11638 -18 l0 -60 -120 0 -120 0 0 60 0 60 120 0 120
0 0 -60z m270 0 l0 -60 -120 0 -120 0 0 60 0 60 120 0 120 0 0 -60z m265 0 l0
-55 -117 -3 -118 -3 0 61 0 61 118 -3 117 -3 0 -55z m265 0 l0 -60 -120 0
-120 0 0 60 0 60 120 0 120 0 0 -60z m270 0 l0 -60 -120 0 -120 0 0 60 0 60
120 0 120 0 0 -60z m1960 -55 l0 -65 -125 0 -125 0 0 60 0 59 123 4 c67 1 123
4 125 5 1 1 2 -27 2 -63z m930 -6 l0 -60 -127 3 -128 3 -3 57 c-4 67 -10 65
151 60 l107 -3 0 -60z m305 4 l0 -58 -127 -3 -128 -3 0 59 c0 32 2 61 4 63 2
2 60 3 128 2 l123 -2 0 -58z m3455 7 l0 -60 -120 0 -120 0 0 60 0 60 120 0
120 0 0 -60z m290 0 l0 -60 -120 0 -120 0 0 60 0 60 120 0 120 0 0 -60z m290
0 l0 -60 -120 0 -120 0 0 60 0 60 120 0 120 0 0 -60z m290 0 l0 -60 -120 0
-120 0 0 60 0 60 120 0 120 0 0 -60z m-5250 -10 l0 -60 -125 0 -125 0 0 60 0
60 125 0 125 0 0 -60z m310 0 l0 -60 -125 0 -125 0 0 60 0 60 125 0 125 0 0
-60z m3120 -145 l0 -145 -40 0 -40 0 0 145 0 145 40 0 40 0 0 -145z m120 0 l0
-145 -40 0 -40 0 0 145 0 145 40 0 40 0 0 -145z m120 0 l0 -145 -40 0 -40 0 0
145 0 145 40 0 40 0 0 -145z m128 20 c4 -159 1 -167 -46 -163 l-37 3 -3 143
-3 143 43 -3 43 -3 3 -120z m3952 35 l0 -60 -120 0 -120 0 0 60 0 60 120 0
120 0 0 -60z m272 0 l3 -60 -116 0 -117 0 -4 48 c-3 26 -3 53 0 60 3 9 36 12
117 12 l113 0 4 -60z m278 0 l0 -60 -120 0 -120 0 0 60 0 60 120 0 120 0 0
-60z"/>
<path d="M15560 7530 c0 -5 5 -10 10 -10 6 0 10 5 10 10 0 6 -4 10 -10 10 -5
0 -10 -4 -10 -10z"/>
<path d="M16053 8080 c0 -25 2 -35 4 -22 2 12 2 32 0 45 -2 12 -4 2 -4 -23z"/>
<path d="M5620 8034 c0 -3 98 -34 105 -34 3 0 3 5 0 10 -3 6 1 10 9 10 8 0 17
4 20 8 2 4 -27 7 -65 7 -38 0 -69 -1 -69 -1z m87 -10 c-3 -3 -12 -4 -19 -1 -8
3 -5 6 6 6 11 1 17 -2 13 -5z"/>
<path d="M6180 7830 c0 -5 9 -10 20 -10 11 0 20 5 20 10 0 6 -9 10 -20 10 -11
0 -20 -4 -20 -10z"/>
<path d="M3260 7760 c0 -45 0 -46 40 -25 37 19 39 29 5 23 -22 -5 -24 -2 -19
18 5 18 2 24 -10 24 -12 0 -16 -10 -16 -40z"/>
<path d="M3300 7792 c0 -7 42 -32 55 -32 13 0 3 18 -12 24 -10 3 -24 9 -30 12
-7 3 -13 2 -13 -4z"/>
<path d="M3358 7787 c14 -17 9 -37 -10 -37 -6 0 -26 -11 -43 -25 -18 -13 -36
-21 -39 -17 -4 3 -11 1 -15 -6 -4 -8 -15 -10 -26 -6 -18 7 -18 8 1 16 18 8 18
8 -1 5 -14 -2 -20 -10 -20 -32 0 -17 -4 -36 -9 -43 -7 -11 -4 -11 13 0 22 13
26 23 14 31 -5 2 -2 2 5 1 13 -4 162 86 162 98 0 4 -10 13 -22 19 -21 11 -22
11 -10 -4z"/>
<path d="M15682 7700 c0 -14 2 -19 5 -12 2 6 2 18 0 25 -3 6 -5 1 -5 -13z"/>
<path d="M6370 7706 c0 -2 7 -7 16 -10 8 -3 12 -2 9 4 -6 10 -25 14 -25 6z"/>
<path d="M6340 7695 c0 -2 15 -12 33 -20 l32 -16 -25 20 c-24 20 -40 26 -40
16z"/>
<path d="M1523 7633 c-1516 -3 -1523 -3 -1523 -23 0 -20 5 -20 1524 -18 1215
2 1522 0 1519 -9 -4 -10 -318 -13 -1526 -13 -836 0 -1518 -2 -1515 -5 2 -3
676 -5 1496 -5 l1491 0 26 -26 c27 -27 31 -25 14 8 -7 13 -7 18 -1 14 6 -3 13
-2 17 4 3 5 14 10 23 9 14 0 15 -2 2 -7 -8 -4 -16 -13 -18 -20 -2 -10 2 -10
18 -2 11 6 20 14 20 19 0 4 11 13 25 19 22 10 24 14 13 26 -10 11 -14 11 -16
1 -2 -7 -15 -15 -30 -18 -26 -5 -27 -5 -7 12 30 25 29 41 -2 39 -16 -2 -713
-4 -1550 -5z m1537 -7 c0 -3 -4 -8 -10 -11 -5 -3 -10 -1 -10 4 0 6 5 11 10 11
6 0 10 -2 10 -4z"/>
<path d="M3126 7625 c10 -8 24 -14 29 -14 6 0 1 6 -9 14 -11 8 -24 15 -30 15
-5 0 -1 -7 10 -15z"/>
<path d="M16042 7582 l-2 -63 115 2 c64 1 112 5 109 10 -3 5 9 9 25 9 17 0 31
4 31 10 0 6 196 11 553 13 l552 2 -672 3 c-441 1 -673 5 -673 12 0 6 15 10 33
10 17 0 319 0 670 0 635 0 637 0 637 20 0 20 -2 20 -663 20 -365 -1 -671 2
-680 6 -14 5 -17 -1 -17 -35 0 -23 5 -41 10 -41 6 0 10 -4 10 -10 0 -5 -6 -9
-12 -7 -7 1 -16 24 -19 52 l-6 50 -1 -63z"/>
<path d="M2966 7534 c-3 -9 -3 -20 0 -25 3 -6 0 -16 -6 -24 -7 -8 -9 -15 -4
-15 4 0 -10 -18 -31 -40 -23 -24 -45 -38 -55 -35 -19 6 -51 -14 -33 -21 7 -3
9 -12 6 -20 -5 -13 -8 -12 -26 3 -19 18 -20 18 -6 -4 8 -13 16 -23 20 -23 3 0
36 30 74 66 37 36 79 72 92 81 12 8 23 20 23 25 0 6 -8 4 -17 -3 -15 -12 -16
-12 -10 4 7 19 -1 47 -13 47 -4 0 -11 -7 -14 -16z m24 -14 c0 -5 -4 -10 -10
-10 -5 0 -10 5 -10 10 0 6 5 10 10 10 6 0 10 -4 10 -10z m-5 -40 c-3 -5 -11
-10 -16 -10 -6 0 -7 5 -4 10 3 6 11 10 16 10 6 0 7 -4 4 -10z m-115 -100 c0
-5 -4 -10 -10 -10 -5 0 -10 5 -10 10 0 6 5 10 10 10 6 0 10 -4 10 -10z"/>
<path d="M16290 7520 c0 -5 7 -10 16 -10 8 0 12 5 9 10 -3 6 -10 10 -16 10 -5
0 -9 -4 -9 -10z"/>
<path d="M6605 7510 c-3 -6 1 -7 9 -4 18 7 21 14 7 14 -6 0 -13 -4 -16 -10z"/>
<path d="M16302 7488 c0 -7 -3 -65 -5 -128 -3 -84 -3 -93 2 -35 l7 80 5 -85 5
-85 2 98 2 97 550 0 550 0 0 25 0 25 -550 0 c-360 0 -550 3 -550 10 0 15 -16
12 -18 -2z"/>
<path d="M0 7455 l0 -25 1439 0 c1142 0 1441 3 1445 13 3 6 3 1 -1 -13 -5 -22
-4 -23 11 -11 10 9 14 22 11 35 -5 16 -4 18 4 6 5 -8 13 -11 18 -7 4 5 1 12
-7 17 -9 6 -589 10 -1467 10 l-1453 0 0 -25z"/>
<path d="M6785 7389 c-4 -6 -5 -12 -2 -15 2 -3 7 2 10 11 7 17 1 20 -8 4z"/>
<path d="M6755 7360 c10 -11 20 -20 23 -20 3 0 -3 9 -13 20 -10 11 -20 20 -23
20 -3 0 3 -9 13 -20z"/>
<path d="M2776 7313 c-15 -8 -25 -17 -22 -20 3 -3 12 0 21 7 9 7 18 11 21 8 3
-3 -16 -26 -41 -51 -25 -25 -41 -48 -35 -52 5 -3 10 -2 10 3 0 5 22 32 49 60
51 52 50 73 -3 45z"/>
<path d="M6834 7275 c8 -8 18 -15 22 -15 3 0 1 7 -6 15 -7 8 -17 15 -22 15 -5
0 -3 -7 6 -15z"/>
<path d="M9555 7210 c-3 -5 -1 -10 4 -10 6 0 11 5 11 10 0 6 -2 10 -4 10 -3 0
-8 -4 -11 -10z"/>
<path d="M2640 7120 c-6 -11 -8 -20 -6 -20 3 0 10 9 16 20 6 11 8 20 6 20 -3
0 -10 -9 -16 -20z"/>
<path d="M7015 7066 c10 -14 19 -26 22 -26 7 0 -17 39 -28 46 -6 3 -3 -5 6
-20z"/>
<path d="M9364 7058 c0 -16 1 -16 21 0 11 9 21 18 23 18 2 1 -7 1 -20 1 -15
-1 -24 -8 -24 -19z"/>
<path d="M2572 7039 c-19 -30 -8 -34 12 -4 9 14 13 25 9 25 -5 0 -14 -9 -21
-21z"/>
<path d="M9310 7030 c-13 -8 -12 -10 3 -10 9 0 17 5 17 10 0 12 -1 12 -20 0z"/>
<path d="M7056 7015 c4 -8 8 -15 10 -15 2 0 4 7 4 15 0 8 -4 15 -10 15 -5 0
-7 -7 -4 -15z"/>
<path d="M9205 6990 c-3 -6 1 -7 9 -4 18 7 21 14 7 14 -6 0 -13 -4 -16 -10z"/>
<path d="M9207 6939 c7 -7 15 -10 18 -7 3 3 -2 9 -12 12 -14 6 -15 5 -6 -5z"/>
<path d="M7140 6896 c0 -8 4 -17 9 -20 5 -4 7 3 4 14 -6 23 -13 26 -13 6z"/>
<path d="M16302 6790 c0 -14 2 -19 5 -12 2 6 2 18 0 25 -3 6 -5 1 -5 -13z"/>
<path d="M8930 6740 c0 -5 5 -10 10 -10 6 0 10 5 10 10 0 6 -4 10 -10 10 -5 0
-10 -4 -10 -10z"/>
<path d="M15475 6740 c-16 -7 -17 -9 -3 -9 9 -1 20 4 23 9 7 11 7 11 -20 0z"/>
<path d="M15395 6700 c-3 -5 -1 -10 4 -10 6 0 11 5 11 10 0 6 -2 10 -4 10 -3
0 -8 -4 -11 -10z"/>
<path d="M12360 6670 l-445 -5 440 -2 c242 -1 449 2 460 7 11 5 13 8 5 7 -8
-1 -215 -4 -460 -7z"/>
<path d="M16752 6415 c0 -16 2 -22 5 -12 2 9 2 23 0 30 -3 6 -5 -1 -5 -18z"/>
<path d="M16753 6280 c0 -47 2 -66 4 -42 2 23 2 61 0 85 -2 23 -4 4 -4 -43z"/>
</g>
</svg>
